<svg id="svg" version="1.1" width="400" height="400" viewBox="0 0 400 400" xmlns="http://www.w3.org/2000/svg" xmlns:xlink="http://www.w3.org/1999/xlink" ><g id="svgg"><path id="path0" d="M14.800 69.399 C 14.800 69.729,15.057 70.000,15.371 70.000 C 15.686 70.000,16.190 70.247,16.491 70.548 C 16.792 70.850,17.570 71.397,18.220 71.765 C 19.389 72.428,21.806 74.059,22.625 74.739 C 22.859 74.933,23.489 75.323,24.025 75.606 C 24.561 75.888,25.090 76.238,25.200 76.383 C 25.310 76.528,26.615 77.320,28.100 78.143 C 29.585 78.966,30.801 79.765,30.803 79.920 C 30.805 80.074,31.985 80.920,33.426 81.800 C 34.867 82.680,37.430 84.346,39.123 85.502 C 40.815 86.659,42.740 87.959,43.400 88.393 C 44.060 88.826,44.870 89.362,45.200 89.583 C 47.740 91.286,48.949 92.052,50.648 93.034 C 51.722 93.654,52.690 94.277,52.800 94.418 C 53.126 94.835,56.949 97.430,57.600 97.676 C 58.231 97.914,63.232 101.138,64.600 102.188 C 65.309 102.733,68.148 104.591,73.655 108.117 C 74.615 108.731,76.570 110.042,78.000 111.031 C 79.430 112.019,80.870 113.002,81.200 113.215 C 81.530 113.428,82.968 114.354,84.395 115.274 C 85.822 116.193,87.172 117.095,87.395 117.277 C 88.362 118.069,93.097 121.044,94.115 121.498 C 94.728 121.772,95.448 122.181,95.715 122.406 C 95.982 122.631,96.740 123.269,97.400 123.823 C 99.333 125.446,102.663 127.227,103.304 126.982 C 103.679 126.838,103.974 127.056,104.110 127.579 C 104.255 128.133,104.535 128.323,104.963 128.159 C 105.371 128.002,105.600 128.130,105.600 128.514 C 105.600 128.844,105.879 129.222,106.221 129.353 C 106.616 129.504,106.741 129.428,106.565 129.144 C 106.398 128.873,106.508 128.773,106.844 128.890 C 107.150 128.996,107.346 129.385,107.280 129.754 C 107.184 130.289,107.366 130.374,108.180 130.169 C 108.837 130.004,109.200 130.079,109.200 130.380 C 109.200 130.647,108.986 130.719,108.700 130.547 C 108.377 130.353,108.400 130.493,108.765 130.942 C 109.096 131.350,109.431 131.473,109.575 131.240 C 109.858 130.783,110.877 131.290,110.774 131.837 C 110.623 132.638,110.832 132.969,111.161 132.449 C 111.630 131.709,112.393 132.236,112.428 133.324 C 112.451 134.047,112.504 134.080,112.728 133.515 C 112.911 133.055,113.181 132.941,113.551 133.170 C 113.854 133.357,113.988 133.696,113.848 133.923 C 113.707 134.150,113.863 134.606,114.193 134.936 C 114.636 135.379,114.733 136.044,114.563 137.468 C 114.233 140.227,113.959 140.826,113.585 139.600 C 113.358 138.855,113.270 139.181,113.240 140.876 C 113.218 142.128,113.380 143.264,113.600 143.400 C 114.274 143.817,114.078 146.395,113.351 146.674 C 112.807 146.883,112.744 147.333,112.962 149.462 C 113.147 151.268,113.089 152.000,112.759 152.000 C 112.444 152.000,112.364 152.601,112.508 153.885 C 112.672 155.333,112.571 155.879,112.076 156.242 C 111.540 156.633,111.519 156.820,111.948 157.338 C 112.492 157.993,112.222 159.600,111.568 159.600 C 111.352 159.600,111.300 160.282,111.446 161.200 C 111.626 162.324,111.559 162.800,111.219 162.800 C 110.889 162.800,110.821 163.185,111.004 164.016 C 111.166 164.756,111.083 165.459,110.791 165.811 C 110.527 166.129,110.415 166.662,110.543 166.995 C 110.805 167.679,110.452 168.877,110.058 168.641 C 109.916 168.556,109.762 169.570,109.716 170.894 C 109.625 173.490,109.371 174.116,108.784 173.188 C 108.488 172.720,108.411 172.776,108.406 173.467 C 108.403 173.943,108.571 174.393,108.780 174.467 C 109.153 174.597,108.335 177.860,107.570 179.295 C 107.367 179.677,107.200 180.262,107.200 180.595 C 107.200 181.325,106.547 181.399,106.265 180.700 C 106.144 180.401,106.050 180.482,106.032 180.900 C 106.014 181.285,106.195 181.600,106.433 181.600 C 106.672 181.600,106.784 181.825,106.683 182.100 C 106.583 182.375,106.290 182.552,106.033 182.494 C 105.691 182.417,105.678 182.599,105.984 183.170 C 106.231 183.632,106.253 184.044,106.036 184.178 C 105.834 184.302,105.548 185.123,105.400 186.002 C 105.251 186.881,104.986 187.600,104.809 187.600 C 104.633 187.600,104.370 188.235,104.224 189.011 C 103.967 190.384,102.647 194.793,102.133 196.000 C 101.992 196.330,101.860 196.870,101.839 197.200 C 101.816 197.546,101.496 197.749,101.083 197.679 C 100.461 197.573,100.432 197.663,100.868 198.360 C 101.144 198.802,101.232 199.302,101.063 199.470 C 100.894 199.639,100.611 199.542,100.434 199.255 C 100.193 198.866,100.057 198.937,99.901 199.536 C 99.751 200.108,99.851 200.279,100.245 200.127 C 100.576 200.000,100.800 200.173,100.800 200.557 C 100.800 200.911,100.541 201.200,100.224 201.200 C 99.907 201.200,99.519 201.408,99.362 201.662 C 99.191 201.937,99.251 202.015,99.511 201.855 C 100.178 201.443,100.465 202.248,99.837 202.769 C 99.532 203.022,99.375 203.583,99.488 204.015 C 99.631 204.561,99.492 204.800,99.033 204.800 C 98.485 204.800,98.449 204.944,98.823 205.643 C 99.149 206.253,99.153 206.607,98.837 206.923 C 98.597 207.163,98.400 207.774,98.400 208.280 C 98.400 209.328,97.805 209.511,97.446 208.575 C 97.099 207.670,96.400 208.270,96.400 209.473 C 96.400 210.335,96.495 210.419,96.995 210.004 C 97.475 209.606,97.635 209.627,97.822 210.113 C 98.149 210.966,97.214 214.270,96.824 213.640 C 96.487 213.094,96.000 215.926,96.000 218.432 C 96.000 219.269,95.820 220.064,95.600 220.200 C 95.094 220.513,95.057 235.735,95.560 236.705 C 95.758 237.087,96.129 239.015,96.384 240.988 C 96.639 242.962,96.997 244.762,97.180 244.988 C 97.362 245.215,97.726 246.480,97.990 247.800 C 98.253 249.120,98.608 250.472,98.778 250.805 C 98.949 251.137,99.385 252.431,99.748 253.680 C 100.111 254.929,100.639 256.187,100.921 256.475 C 101.203 256.764,101.681 257.630,101.983 258.400 C 102.285 259.170,102.747 260.070,103.009 260.400 C 103.272 260.730,103.688 261.598,103.933 262.330 C 104.178 263.061,104.834 264.200,105.390 264.861 C 105.945 265.521,106.400 266.235,106.400 266.448 C 106.400 266.868,106.515 267.030,108.500 269.400 C 110.692 272.018,112.247 274.124,112.927 275.400 C 113.280 276.060,113.575 276.476,113.584 276.325 C 113.593 276.174,115.397 277.884,117.593 280.125 C 119.790 282.366,121.725 284.340,121.893 284.511 C 124.717 287.375,133.877 295.136,136.398 296.800 C 136.898 297.130,138.318 298.210,139.554 299.200 C 142.401 301.482,144.279 302.800,144.684 302.800 C 144.858 302.801,145.523 303.251,146.162 303.800 C 146.801 304.350,147.464 304.800,147.634 304.800 C 147.804 304.800,148.208 305.065,148.533 305.390 C 148.857 305.714,150.255 306.643,151.638 307.454 C 153.022 308.265,154.754 309.336,155.488 309.834 C 156.222 310.332,157.673 311.146,158.711 311.643 C 159.750 312.141,160.870 312.829,161.201 313.174 C 161.531 313.518,163.061 314.430,164.601 315.200 C 166.140 315.970,167.490 316.690,167.600 316.800 C 167.710 316.910,169.150 317.685,170.800 318.522 C 172.450 319.359,175.150 320.758,176.800 321.631 C 178.450 322.504,180.475 323.423,181.300 323.673 C 182.125 323.922,182.800 324.278,182.800 324.463 C 182.800 324.648,183.008 324.800,183.261 324.800 C 183.705 324.800,187.424 326.399,188.929 327.237 C 190.132 327.907,192.498 329.075,194.200 329.840 C 195.080 330.235,195.890 330.675,196.000 330.818 C 196.110 330.960,197.055 331.191,198.100 331.331 L 200.000 331.585 200.000 325.192 C 200.000 318.749,199.611 317.117,198.100 317.221 C 197.040 317.293,196.226 316.783,196.800 316.406 C 197.130 316.189,197.211 316.009,196.980 316.006 C 196.749 316.003,196.344 316.216,196.080 316.480 C 195.707 316.853,195.600 316.803,195.600 316.253 C 195.600 315.728,195.394 315.611,194.800 315.800 C 194.201 315.990,193.998 315.871,193.994 315.327 C 193.989 314.711,193.928 314.692,193.600 315.200 C 193.254 315.735,193.031 315.496,193.148 314.714 C 193.171 314.557,192.954 314.519,192.665 314.630 C 191.874 314.934,188.400 313.314,188.400 312.641 C 188.400 311.988,187.032 311.410,186.404 311.798 C 186.182 311.935,186.000 311.862,186.000 311.636 C 186.000 311.410,185.730 311.329,185.400 311.455 C 185.070 311.582,184.800 311.501,184.800 311.276 C 184.800 311.051,185.020 310.793,185.290 310.703 C 185.559 310.614,185.392 310.439,184.920 310.315 C 184.295 310.152,184.118 310.242,184.273 310.645 C 184.390 310.950,184.286 311.200,184.043 311.200 C 183.799 311.200,183.586 310.795,183.568 310.300 C 183.551 309.805,183.446 309.625,183.335 309.900 C 183.036 310.641,182.401 310.506,182.394 309.700 C 182.389 309.102,182.331 309.087,182.000 309.600 C 181.674 310.105,181.611 310.081,181.606 309.451 C 181.601 308.831,181.497 308.788,181.000 309.200 C 180.509 309.607,180.400 309.582,180.400 309.062 C 180.400 308.660,180.178 308.510,179.800 308.655 C 179.423 308.800,179.200 308.651,179.200 308.257 C 179.200 307.911,178.795 307.432,178.300 307.192 C 177.439 306.775,177.434 306.783,178.171 307.374 C 178.595 307.714,178.852 308.082,178.742 308.192 C 178.632 308.302,178.148 308.024,177.666 307.575 C 177.184 307.126,176.626 306.860,176.427 306.983 C 176.228 307.107,175.748 306.891,175.361 306.504 C 174.974 306.117,174.554 305.822,174.429 305.849 C 173.965 305.949,173.200 305.503,173.200 305.134 C 173.200 304.924,173.425 304.880,173.700 305.035 C 174.031 305.222,174.065 305.184,173.800 304.923 C 173.037 304.170,170.373 302.720,170.486 303.119 C 170.549 303.340,170.465 303.538,170.300 303.560 C 169.396 303.681,169.136 303.543,169.327 303.045 C 169.481 302.646,169.306 302.552,168.703 302.710 C 168.023 302.887,167.917 302.793,168.142 302.208 C 168.375 301.598,168.324 301.565,167.809 301.992 C 167.307 302.409,167.200 302.386,167.200 301.862 C 167.200 301.460,166.978 301.310,166.600 301.455 C 166.270 301.582,166.000 301.486,166.000 301.243 C 166.000 300.999,165.640 300.800,165.200 300.800 C 164.760 300.800,164.400 300.536,164.400 300.213 C 164.400 299.855,164.165 299.715,163.800 299.855 C 163.430 299.998,163.200 299.854,163.200 299.480 C 163.200 299.072,162.940 298.943,162.400 299.084 C 161.953 299.201,161.600 299.096,161.600 298.847 C 161.600 298.601,161.311 298.400,160.957 298.400 C 160.567 298.400,160.400 298.177,160.532 297.833 C 160.652 297.521,160.482 297.163,160.154 297.038 C 159.818 296.909,159.665 296.981,159.803 297.205 C 159.937 297.422,159.851 297.600,159.611 297.600 C 159.371 297.600,159.011 297.195,158.812 296.700 C 158.613 296.205,158.439 296.019,158.425 296.287 C 158.390 296.977,157.200 296.439,157.200 295.734 C 157.200 295.414,157.022 295.263,156.804 295.398 C 156.289 295.716,154.429 294.362,154.413 293.657 C 154.405 293.316,154.152 293.210,153.732 293.371 C 153.365 293.512,152.960 293.482,152.832 293.304 C 152.704 293.127,152.099 292.663,151.487 292.273 C 150.875 291.884,150.468 291.413,150.583 291.228 C 150.697 291.042,150.478 290.645,150.096 290.345 C 149.466 289.852,149.452 289.867,149.949 290.500 C 150.532 291.243,150.166 291.420,149.249 290.839 C 148.946 290.647,148.809 290.310,148.944 290.090 C 149.080 289.870,148.919 289.465,148.586 289.189 C 148.078 288.767,148.025 288.799,148.251 289.390 C 148.489 290.008,148.414 290.036,147.630 289.616 C 147.121 289.344,146.830 288.899,146.952 288.582 C 147.205 287.923,146.565 287.409,146.209 287.985 C 145.828 288.603,144.405 287.535,144.368 286.604 C 144.351 286.162,144.248 286.019,144.140 286.286 C 143.854 286.991,142.400 286.014,142.400 285.116 C 142.400 284.659,142.192 284.505,141.785 284.661 C 141.043 284.946,139.496 283.649,139.759 282.963 C 139.862 282.695,139.611 282.172,139.201 281.801 C 138.492 281.159,138.467 281.172,138.685 282.063 C 138.905 282.964,138.866 282.955,137.657 281.825 C 136.966 281.179,136.400 280.445,136.400 280.195 C 136.400 279.944,135.906 279.303,135.303 278.770 C 134.315 277.896,134.281 277.889,134.965 278.700 C 136.311 280.296,135.157 279.660,132.544 277.366 C 131.145 276.138,130.000 274.867,130.000 274.544 C 130.000 273.763,126.042 269.770,125.403 269.906 C 125.128 269.964,124.430 269.391,123.852 268.632 C 122.562 266.942,122.496 266.418,123.700 267.438 L 124.600 268.200 123.800 267.254 C 123.360 266.734,122.590 266.152,122.090 265.960 C 121.589 265.769,121.062 265.294,120.918 264.906 C 120.773 264.518,120.328 263.909,119.928 263.553 C 119.527 263.197,119.200 262.612,119.200 262.253 C 119.200 261.894,118.930 261.600,118.600 261.600 C 118.270 261.600,118.000 261.259,118.000 260.843 C 118.000 260.426,117.730 259.982,117.400 259.855 C 117.070 259.729,116.800 259.339,116.800 258.989 C 116.800 258.610,116.987 258.468,117.262 258.638 C 117.541 258.811,117.615 258.748,117.449 258.479 C 117.298 258.235,116.955 258.119,116.687 258.222 C 116.417 258.325,115.945 257.826,115.632 257.105 C 115.320 256.387,114.939 255.710,114.786 255.600 C 114.289 255.243,113.869 253.472,114.353 253.771 C 114.632 253.943,114.700 253.805,114.540 253.387 C 114.360 252.919,114.205 252.869,113.994 253.209 C 113.567 253.901,113.138 253.039,113.461 252.136 C 113.936 250.808,114.463 250.354,115.006 250.805 C 115.365 251.103,115.573 251.048,115.741 250.610 C 115.870 250.275,116.174 250.000,116.418 250.000 C 116.939 250.000,119.200 247.819,119.200 247.317 C 119.200 247.128,119.695 246.680,120.301 246.322 C 120.907 245.964,122.964 244.081,124.873 242.136 C 126.782 240.191,130.561 236.530,133.270 234.000 C 138.961 228.685,144.192 223.671,149.232 218.700 C 151.184 216.775,152.902 215.200,153.051 215.200 C 153.200 215.200,154.950 213.625,156.940 211.700 C 158.930 209.775,162.094 206.760,163.970 205.000 C 165.847 203.240,168.979 200.225,170.930 198.300 C 172.881 196.375,174.599 194.800,174.746 194.800 C 174.894 194.800,176.599 193.180,178.534 191.200 C 180.470 189.220,182.134 187.600,182.232 187.600 C 182.477 187.600,186.272 184.064,187.555 182.640 C 188.130 182.002,188.838 181.282,189.130 181.040 C 189.421 180.798,191.986 178.444,194.830 175.808 L 200.000 171.016 200.000 147.308 C 200.000 134.269,199.918 123.600,199.817 123.600 C 199.522 123.600,195.165 127.722,187.978 134.800 C 184.292 138.430,177.916 144.640,173.808 148.600 C 169.701 152.560,163.210 158.860,159.384 162.600 C 155.559 166.340,148.726 173.000,144.199 177.400 C 139.673 181.800,135.302 186.090,134.485 186.933 C 133.668 187.776,132.370 189.030,131.600 189.719 C 130.830 190.409,128.562 192.599,126.559 194.586 C 124.556 196.574,121.856 199.229,120.559 200.487 C 119.262 201.744,117.601 203.364,116.869 204.087 C 107.804 213.035,108.400 212.533,108.400 211.215 C 108.400 210.402,108.598 210.000,109.000 210.000 C 109.330 210.000,109.600 209.809,109.600 209.576 C 109.600 209.343,109.393 209.281,109.139 209.438 C 108.643 209.744,108.894 207.313,109.596 205.000 C 109.796 204.340,110.356 202.450,110.840 200.800 C 111.324 199.150,111.859 197.643,112.029 197.451 C 112.199 197.259,112.242 196.854,112.126 196.551 C 112.010 196.248,112.159 196.000,112.457 195.999 C 112.786 195.999,113.017 195.516,113.044 194.775 C 113.068 194.103,113.286 193.354,113.528 193.112 C 113.848 192.792,113.945 192.956,113.884 193.714 C 113.838 194.287,113.980 194.772,114.200 194.791 C 114.420 194.810,114.645 194.324,114.699 193.712 C 114.895 191.511,115.743 188.187,116.266 187.569 C 116.560 187.221,116.800 186.676,116.800 186.358 C 116.800 186.039,117.080 185.378,117.423 184.888 C 117.766 184.399,117.930 183.811,117.789 183.582 C 117.647 183.353,117.703 182.948,117.913 182.682 C 118.123 182.417,118.527 181.210,118.809 180.000 C 119.092 178.790,119.473 177.530,119.657 177.200 C 120.186 176.246,121.602 170.542,122.338 166.400 C 122.710 164.310,123.217 162.240,123.466 161.800 C 123.715 161.360,124.132 159.200,124.393 157.000 C 124.653 154.800,125.053 152.652,125.282 152.227 C 125.511 151.802,125.791 149.957,125.905 148.127 C 126.019 146.297,126.273 144.800,126.469 144.800 C 126.665 144.800,126.790 143.945,126.747 142.900 C 126.612 139.651,127.306 128.781,127.662 128.562 C 128.110 128.285,128.100 116.800,127.652 116.800 C 127.461 116.800,127.205 114.955,127.083 112.700 C 126.744 106.455,125.663 95.572,125.224 94.000 C 125.009 93.230,124.631 91.070,124.384 89.200 C 124.136 87.330,123.686 85.260,123.384 84.600 C 123.081 83.940,122.634 82.140,122.390 80.600 C 122.147 79.060,121.778 77.440,121.570 77.000 C 121.363 76.560,120.862 74.580,120.457 72.600 L 119.722 69.000 67.261 68.899 C 20.793 68.809,14.800 68.866,14.800 69.399 " stroke="none" fill="#b31314" fill-rule="evenodd"></path><path id="path1" d="M280.880 69.280 C 280.616 69.544,280.397 70.129,280.393 70.580 C 280.389 71.031,280.018 72.750,279.568 74.400 C 278.302 79.043,276.756 86.243,275.617 92.800 C 275.368 94.230,275.062 95.850,274.936 96.400 C 274.686 97.497,274.644 97.869,273.793 106.600 C 272.697 117.831,272.271 127.011,272.799 127.998 C 272.992 128.359,273.251 130.802,273.374 133.427 C 273.788 142.244,274.481 148.680,275.547 153.600 C 275.932 155.376,276.393 157.756,277.947 166.000 C 278.383 168.310,279.224 171.820,279.816 173.800 C 280.407 175.780,281.155 178.390,281.478 179.600 C 281.800 180.810,282.230 181.971,282.432 182.180 C 282.634 182.389,282.800 182.974,282.800 183.480 C 282.800 183.986,282.960 184.400,283.155 184.400 C 283.351 184.400,283.637 185.075,283.791 185.900 C 283.945 186.725,284.202 187.580,284.361 187.800 C 284.780 188.381,285.713 192.375,285.760 193.790 C 285.786 194.567,286.009 195.000,286.385 195.000 C 286.739 195.000,287.117 195.633,287.343 196.600 C 287.548 197.480,287.835 198.290,287.981 198.400 C 288.127 198.510,288.491 199.680,288.790 201.000 C 289.090 202.320,289.452 203.580,289.595 203.800 C 290.235 204.782,291.770 211.164,291.444 211.489 C 291.293 211.641,284.240 205.049,282.662 203.282 C 282.021 202.565,272.957 193.727,267.800 188.791 C 266.442 187.491,261.390 182.534,255.783 177.000 C 252.217 173.480,245.481 166.910,240.815 162.400 C 236.150 157.890,229.332 151.275,225.666 147.700 C 218.966 141.168,205.253 127.896,202.314 125.100 C 201.446 124.275,200.661 123.600,200.568 123.600 C 199.918 123.600,200.447 171.062,201.103 171.624 C 202.023 172.412,208.452 178.398,213.000 182.702 C 214.980 184.575,218.239 187.659,220.241 189.554 C 222.244 191.449,225.774 194.800,228.085 197.000 C 232.466 201.170,236.166 204.659,242.296 210.400 C 251.433 218.957,255.091 222.414,257.953 225.200 C 259.649 226.850,263.268 230.270,265.997 232.800 C 268.725 235.330,272.691 239.110,274.809 241.200 C 276.928 243.290,279.322 245.589,280.130 246.310 C 280.939 247.030,281.607 247.750,281.615 247.910 C 281.623 248.069,282.785 249.091,284.196 250.181 C 285.828 251.440,286.637 252.315,286.416 252.581 C 286.225 252.811,286.050 253.134,286.029 253.297 C 285.969 253.747,284.646 256.544,284.276 257.000 C 284.098 257.220,283.606 257.940,283.182 258.600 C 282.758 259.260,282.184 260.154,281.906 260.587 C 279.481 264.362,270.298 274.538,266.559 277.594 C 266.159 277.921,264.459 279.361,262.780 280.794 C 258.288 284.630,254.856 287.282,252.200 288.971 C 251.540 289.390,250.730 290.030,250.400 290.393 C 250.070 290.755,248.630 291.760,247.200 292.626 C 245.770 293.492,244.420 294.339,244.200 294.509 C 242.235 296.025,235.332 300.182,231.800 301.977 C 230.260 302.760,228.010 304.061,226.800 304.870 C 225.590 305.678,224.105 306.462,223.500 306.613 C 222.895 306.763,222.400 307.058,222.400 307.267 C 222.400 307.476,222.235 307.545,222.034 307.421 C 221.833 307.297,221.608 307.331,221.534 307.498 C 221.460 307.664,220.590 308.191,219.600 308.670 C 209.877 313.368,207.655 314.400,207.259 314.400 C 207.006 314.400,206.800 314.557,206.800 314.748 C 206.800 314.939,205.990 315.323,205.000 315.600 C 204.010 315.877,203.200 316.272,203.200 316.477 C 203.200 316.682,202.885 316.818,202.500 316.779 C 200.301 316.555,200.400 316.205,200.400 324.205 L 200.400 331.609 202.061 331.344 C 202.974 331.198,205.629 330.135,207.961 328.983 C 214.118 325.939,216.617 324.800,217.139 324.800 C 217.392 324.800,217.600 324.640,217.600 324.443 C 217.600 324.247,218.068 323.969,218.640 323.826 C 219.936 323.501,228.165 319.431,228.801 318.800 C 228.912 318.690,231.163 317.520,233.802 316.200 C 236.441 314.880,238.870 313.530,239.200 313.200 C 239.530 312.870,240.970 311.985,242.400 311.232 C 243.830 310.480,245.429 309.535,245.954 309.132 C 246.479 308.730,247.154 308.400,247.454 308.400 C 247.754 308.400,248.000 308.242,248.000 308.049 C 248.000 307.855,248.501 307.490,249.113 307.236 C 249.725 306.983,250.754 306.321,251.399 305.767 C 252.045 305.212,253.209 304.383,253.986 303.923 C 256.567 302.399,258.578 301.031,260.627 299.407 C 261.742 298.523,263.158 297.440,263.774 297.000 C 267.633 294.245,275.836 287.048,280.800 282.063 C 283.990 278.859,286.735 276.275,286.900 276.319 C 287.065 276.364,287.200 276.154,287.200 275.854 C 287.200 275.554,288.325 273.912,289.700 272.205 C 291.075 270.498,292.435 268.674,292.722 268.151 C 293.009 267.628,293.414 267.200,293.622 267.200 C 293.830 267.200,294.000 266.944,294.000 266.631 C 294.000 266.318,294.452 265.524,295.005 264.867 C 295.558 264.210,296.282 262.900,296.615 261.956 C 296.949 261.012,297.460 259.961,297.752 259.620 C 298.044 259.279,298.534 258.415,298.839 257.700 C 299.145 256.985,299.508 256.400,299.646 256.400 C 299.783 256.400,300.125 255.545,300.404 254.500 C 300.683 253.455,301.136 252.060,301.409 251.400 C 301.682 250.740,302.127 249.120,302.397 247.800 C 302.668 246.480,303.031 245.220,303.204 245.000 C 303.377 244.780,303.724 243.160,303.975 241.400 C 304.227 239.640,304.619 237.300,304.846 236.200 C 305.702 232.050,304.480 211.359,303.338 210.680 C 303.042 210.504,302.800 210.179,302.800 209.957 C 302.800 209.734,302.968 209.656,303.172 209.783 C 303.766 210.150,304.082 209.273,303.634 208.503 C 303.252 207.848,303.224 207.852,303.212 208.567 C 303.191 209.903,302.812 209.011,302.362 206.565 C 302.122 205.264,301.786 204.020,301.615 203.800 C 301.445 203.580,301.078 202.410,300.800 201.200 C 300.522 199.990,300.170 198.820,300.018 198.600 C 299.865 198.380,299.520 197.390,299.252 196.400 C 298.983 195.410,298.610 194.240,298.422 193.800 C 298.235 193.360,297.815 192.370,297.488 191.600 C 297.162 190.830,296.767 189.480,296.612 188.600 C 296.456 187.720,296.192 186.820,296.026 186.600 C 295.860 186.380,295.488 185.300,295.200 184.200 C 294.912 183.100,294.574 182.020,294.449 181.800 C 294.324 181.580,294.206 181.220,294.188 181.000 C 294.169 180.780,294.041 180.330,293.903 180.000 C 293.411 178.824,291.677 172.573,291.408 171.000 C 291.257 170.120,290.900 168.860,290.614 168.200 C 290.329 167.540,289.782 164.750,289.401 162.000 C 289.019 159.250,288.568 156.730,288.399 156.400 C 288.230 156.070,287.883 152.290,287.628 148.000 C 287.176 140.393,287.051 138.989,286.554 135.904 C 286.357 134.679,286.448 134.358,287.057 134.133 C 287.466 133.982,287.890 133.728,288.000 133.569 C 288.223 133.246,292.390 130.400,292.639 130.400 C 292.727 130.400,293.654 129.799,294.699 129.064 C 295.745 128.330,297.770 127.079,299.200 126.284 C 300.630 125.490,302.286 124.426,302.881 123.920 C 304.787 122.298,305.754 121.600,306.098 121.600 C 306.282 121.600,306.920 121.264,307.516 120.854 C 308.112 120.444,309.590 119.459,310.800 118.666 C 312.010 117.874,314.540 116.184,316.421 114.913 C 318.303 113.641,320.519 112.240,321.345 111.800 C 322.172 111.360,323.667 110.325,324.668 109.500 C 325.668 108.675,326.655 108.000,326.860 108.000 C 327.066 108.000,327.451 107.815,327.717 107.588 C 327.983 107.362,329.730 106.201,331.600 105.008 C 333.470 103.816,335.360 102.564,335.800 102.226 C 337.206 101.146,341.758 98.197,344.015 96.904 C 345.217 96.215,346.560 95.322,347.000 94.918 C 347.440 94.515,349.240 93.298,351.000 92.213 C 352.760 91.129,355.640 89.251,357.400 88.041 C 361.085 85.506,363.465 83.954,366.576 82.055 C 367.788 81.316,369.244 80.281,369.811 79.755 C 370.377 79.230,371.102 78.800,371.421 78.800 C 371.739 78.800,372.000 78.642,372.000 78.449 C 372.000 78.255,372.555 77.867,373.234 77.586 C 373.913 77.305,374.678 76.874,374.934 76.628 C 375.190 76.383,377.695 74.662,380.500 72.805 C 383.305 70.948,385.600 69.287,385.600 69.114 C 385.600 68.560,281.435 68.725,280.880 69.280 " stroke="none" fill="#b4b4bc" fill-rule="evenodd"></path><path id="path2" d="M113.326 193.900 C 113.189 194.285,113.004 194.735,112.915 194.900 C 112.826 195.065,112.922 195.200,113.130 195.200 C 113.337 195.200,113.593 194.750,113.698 194.200 C 113.918 193.049,113.693 192.868,113.326 193.900 M136.962 281.100 C 137.794 282.083,138.400 282.265,138.400 281.533 C 138.400 281.277,138.280 281.187,138.132 281.334 C 137.985 281.481,137.490 281.286,137.032 280.901 C 136.201 280.201,136.201 280.201,136.962 281.100 " stroke="none" fill="#cc5c60" fill-rule="evenodd"></path><path id="path3" d="M272.514 120.200 C 272.517 121.300,272.595 121.703,272.687 121.095 C 272.779 120.486,272.777 119.586,272.682 119.095 C 272.587 118.603,272.511 119.100,272.514 120.200 M200.188 147.200 C 200.188 160.290,200.238 165.645,200.300 159.100 C 200.361 152.555,200.361 141.845,200.300 135.300 C 200.238 128.755,200.188 134.110,200.188 147.200 M114.000 136.224 C 114.000 136.804,114.173 137.140,114.400 137.000 C 114.620 136.864,114.800 136.403,114.800 135.976 C 114.800 135.549,114.620 135.200,114.400 135.200 C 114.180 135.200,114.000 135.661,114.000 136.224 M113.888 138.933 C 113.442 140.066,113.515 140.645,114.038 140.122 C 114.278 139.882,114.408 139.351,114.326 138.942 C 114.182 138.226,114.166 138.226,113.888 138.933 M113.632 145.000 C 113.561 146.286,113.476 146.443,113.200 145.800 C 112.872 145.037,112.855 145.041,112.828 145.900 C 112.797 146.894,113.500 147.126,113.842 146.234 C 113.962 145.922,113.983 145.157,113.890 144.534 C 113.752 143.611,113.703 143.698,113.632 145.000 M107.686 177.538 C 107.379 177.733,107.286 178.159,107.454 178.598 C 107.649 179.105,107.591 179.242,107.268 179.042 C 106.982 178.865,106.800 179.014,106.800 179.425 C 106.800 180.438,107.863 179.426,108.100 178.188 C 108.204 177.645,108.269 177.203,108.245 177.206 C 108.220 177.209,107.969 177.359,107.686 177.538 M105.749 183.906 C 105.501 184.068,105.190 185.010,105.059 186.000 C 104.834 187.694,104.844 187.718,105.217 186.400 C 105.435 185.630,105.792 184.685,106.010 184.300 C 106.448 183.527,106.413 183.473,105.749 183.906 M103.246 191.267 C 103.221 191.634,103.096 192.264,102.970 192.667 C 102.752 193.362,102.763 193.363,103.197 192.687 C 103.448 192.296,103.573 191.666,103.473 191.287 C 103.311 190.668,103.288 190.666,103.246 191.267 M101.904 195.388 C 101.801 195.931,101.848 196.294,102.010 196.194 C 102.440 195.928,102.780 194.400,102.409 194.400 C 102.235 194.400,102.008 194.845,101.904 195.388 M111.787 197.800 C 111.684 198.130,111.516 198.670,111.413 199.000 C 111.309 199.330,111.399 199.600,111.613 199.600 C 111.826 199.600,112.003 199.105,112.006 198.500 C 112.011 197.643,112.098 197.532,112.400 198.000 C 112.731 198.513,112.789 198.498,112.794 197.900 C 112.801 197.045,112.047 196.970,111.787 197.800 M100.179 200.366 C 100.303 200.567,100.179 200.823,99.902 200.934 C 99.599 201.056,99.678 201.149,100.100 201.168 C 100.485 201.186,100.800 200.930,100.800 200.600 C 100.800 200.270,100.609 200.000,100.376 200.000 C 100.143 200.000,100.055 200.165,100.179 200.366 M110.624 201.100 C 110.480 201.705,110.278 202.485,110.175 202.833 C 110.072 203.182,110.216 203.466,110.494 203.464 C 110.816 203.463,111.018 202.832,111.050 201.731 C 111.107 199.727,110.993 199.556,110.624 201.100 M109.820 204.767 C 109.149 205.854,108.829 208.074,109.414 207.588 C 109.710 207.342,109.847 206.867,109.718 206.530 C 109.589 206.194,109.712 205.778,109.990 205.606 C 110.269 205.434,110.419 205.056,110.322 204.766 C 110.177 204.331,110.090 204.331,109.820 204.767 M98.400 206.400 C 98.083 206.596,97.956 206.889,98.118 207.052 C 98.281 207.214,98.623 207.137,98.880 206.880 C 99.484 206.276,99.147 205.938,98.400 206.400 M116.390 258.263 C 116.615 258.375,116.800 258.711,116.800 259.010 C 116.800 259.308,116.978 259.663,117.195 259.797 C 117.445 259.951,117.468 259.712,117.256 259.141 C 117.073 258.646,116.711 258.200,116.452 258.151 C 116.192 258.101,116.165 258.151,116.390 258.263 M120.200 263.906 C 120.420 264.068,120.793 264.549,121.029 264.976 C 121.264 265.403,121.674 265.795,121.939 265.846 C 122.237 265.904,122.254 265.859,121.984 265.728 C 121.744 265.611,121.384 265.085,121.184 264.558 C 120.984 264.031,120.590 263.603,120.310 263.606 C 119.996 263.610,119.954 263.725,120.200 263.906 M130.000 274.655 C 130.000 274.868,130.675 275.663,131.500 276.422 L 133.000 277.800 131.600 276.204 C 130.830 275.327,130.155 274.532,130.100 274.438 C 130.045 274.344,130.000 274.441,130.000 274.655 M145.000 287.690 C 146.108 288.353,147.047 288.487,146.458 287.898 C 146.212 287.652,145.603 287.397,145.105 287.331 C 144.230 287.214,144.227 287.226,145.000 287.690 M150.800 291.800 C 152.330 292.929,152.400 292.955,152.400 292.400 C 152.400 292.180,152.152 292.000,151.849 292.000 C 151.546 292.000,151.074 291.730,150.800 291.400 C 150.526 291.070,150.109 290.800,149.873 290.800 C 149.638 290.800,150.055 291.250,150.800 291.800 M160.400 298.000 C 160.400 298.220,160.805 298.397,161.300 298.394 C 162.028 298.389,162.085 298.314,161.600 298.000 C 160.824 297.499,160.400 297.499,160.400 298.000 M168.000 302.400 C 168.000 302.620,168.193 302.800,168.429 302.800 C 168.664 302.800,169.129 303.072,169.461 303.404 C 170.086 304.028,170.993 303.835,170.579 303.166 C 170.450 302.957,170.198 302.878,170.018 302.989 C 169.838 303.100,169.468 302.923,169.196 302.596 C 168.630 301.914,168.000 301.811,168.000 302.400 M196.606 316.810 C 196.872 317.240,198.400 317.580,198.400 317.209 C 198.400 317.035,197.955 316.808,197.412 316.704 C 196.869 316.601,196.506 316.648,196.606 316.810 M199.290 318.115 C 199.882 318.594,199.997 319.599,200.100 325.237 L 200.221 331.800 200.311 325.114 C 200.399 318.535,200.386 318.421,199.500 317.992 C 198.695 317.602,198.673 317.615,199.290 318.115 " stroke="none" fill="#c44c4c" fill-rule="evenodd"></path><path id="path4" d="M130.800 275.116 C 130.800 275.329,131.610 276.167,132.600 276.979 C 133.590 277.790,134.400 278.387,134.400 278.306 C 134.400 278.225,133.590 277.387,132.600 276.443 C 131.610 275.500,130.800 274.902,130.800 275.116 M199.000 317.278 C 199.440 317.527,199.952 317.927,200.138 318.166 C 200.339 318.425,200.380 318.304,200.238 317.867 C 200.107 317.464,200.000 317.059,200.000 316.967 C 200.000 316.875,199.595 316.805,199.100 316.812 C 198.225 316.824,198.222 316.837,199.000 317.278 " stroke="none" fill="#d48484" fill-rule="evenodd"></path></g></svg>