<?xml version="1.0" encoding="utf-8"?>
<!-- Generator: Adobe Illustrator 21.0.0, SVG Export Plug-In . SVG Version: 6.00 Build 0)  -->
<svg version="1.1" id="Layer_1" xmlns="http://www.w3.org/2000/svg" xmlns:xlink="http://www.w3.org/1999/xlink" x="0px" y="0px"
	 viewBox="0 0 60 25" style="enable-background:new 0 0 60 25;" xml:space="preserve">
<style type="text/css">
	.st0{enable-background:new    ;}
	.st1{fill:#4A48FB;}
	.st2{fill:#54FFDB;}
</style>
<title>Ll:sg;</title>
<desc>Created with Sketch.</desc>
<g id="Mobile-_x28_-_x3C_-650px-_x29_">
	<g id="Mobile-Portrait" transform="translate(-23.000000, -25.000000)">
		<g id="Header" transform="translate(22.000000, 22.000000)">
			<g class="st0">
				<path class="st1" d="M1.8,22V5h4.1v13.4h6.6V22H1.8z"/>
				<path class="st1" d="M14.2,22V3.9h4V22H14.2z"/>
				<path class="st1" d="M26.1,12.2c0,0.3-0.1,0.6-0.2,0.9c-0.1,0.3-0.3,0.5-0.5,0.7c-0.2,0.2-0.5,0.4-0.7,0.5s-0.6,0.2-0.9,0.2
					c-0.3,0-0.6-0.1-0.9-0.2c-0.3-0.1-0.5-0.3-0.8-0.5c-0.2-0.2-0.4-0.4-0.5-0.7c-0.1-0.3-0.2-0.6-0.2-0.9s0.1-0.6,0.2-0.9
					c0.1-0.3,0.3-0.5,0.5-0.7c0.2-0.2,0.5-0.4,0.8-0.5c0.3-0.1,0.6-0.2,0.9-0.2c0.3,0,0.6,0.1,0.9,0.2s0.5,0.3,0.7,0.5
					c0.2,0.2,0.4,0.4,0.5,0.7C26,11.6,26.1,11.9,26.1,12.2z M26.1,19.9c0,0.3-0.1,0.6-0.2,0.9c-0.1,0.3-0.3,0.5-0.5,0.7
					c-0.2,0.2-0.5,0.4-0.7,0.5s-0.6,0.2-0.9,0.2c-0.3,0-0.6-0.1-0.9-0.2c-0.3-0.1-0.5-0.3-0.8-0.5c-0.2-0.2-0.4-0.4-0.5-0.7
					c-0.1-0.3-0.2-0.6-0.2-0.9c0-0.3,0.1-0.6,0.2-0.9c0.1-0.3,0.3-0.5,0.5-0.7c0.2-0.2,0.5-0.4,0.8-0.5c0.3-0.1,0.6-0.2,0.9-0.2
					c0.3,0,0.6,0.1,0.9,0.2s0.5,0.3,0.7,0.5c0.2,0.2,0.4,0.4,0.5,0.7C26,19.2,26.1,19.5,26.1,19.9z"/>
			</g>
			<g class="st0">
				<path class="st2" d="M36.3,13.6c-0.3-0.3-0.7-0.6-1.1-0.8c-0.4-0.2-0.9-0.3-1.4-0.3c-0.4,0-0.7,0.1-1,0.2
					c-0.3,0.1-0.5,0.4-0.5,0.7c0,0.3,0.2,0.6,0.5,0.7c0.3,0.1,0.9,0.3,1.7,0.5c0.4,0.1,0.9,0.2,1.4,0.4c0.5,0.2,0.9,0.4,1.2,0.7
					s0.7,0.6,0.9,1.1c0.2,0.4,0.3,0.9,0.3,1.5c0,0.8-0.2,1.4-0.5,1.9c-0.3,0.5-0.7,0.9-1.2,1.3c-0.5,0.3-1,0.6-1.6,0.7
					c-0.6,0.1-1.2,0.2-1.8,0.2c-1,0-1.9-0.2-2.9-0.5c-0.9-0.3-1.7-0.8-2.3-1.4l2.2-2.3c0.4,0.4,0.8,0.7,1.3,1
					c0.5,0.3,1.1,0.4,1.6,0.4c0.3,0,0.6-0.1,0.9-0.2c0.3-0.2,0.5-0.4,0.5-0.8c0-0.4-0.2-0.6-0.6-0.8c-0.4-0.2-1-0.4-1.8-0.6
					c-0.4-0.1-0.8-0.2-1.2-0.4c-0.4-0.2-0.8-0.4-1.1-0.6c-0.3-0.3-0.6-0.6-0.8-1c-0.2-0.4-0.3-0.9-0.3-1.4c0-0.7,0.2-1.3,0.5-1.8
					c0.3-0.5,0.7-0.9,1.2-1.2c0.5-0.3,1-0.6,1.6-0.7c0.6-0.2,1.2-0.2,1.7-0.2c0.9,0,1.8,0.1,2.6,0.4c0.9,0.3,1.6,0.7,2.2,1.3
					L36.3,13.6z"/>
				<path class="st2" d="M53.3,20.9c0,1.2-0.2,2.2-0.5,3s-0.8,1.6-1.4,2.1c-0.6,0.6-1.3,1-2.2,1.3s-1.8,0.4-2.9,0.4
					c-1.1,0-2.1-0.2-3.3-0.5c-1.1-0.3-2.1-0.8-2.9-1.4l2-2.8c0.6,0.5,1.2,0.9,1.9,1.1s1.4,0.4,2.1,0.4c1.2,0,2-0.3,2.6-0.9
					c0.6-0.6,0.8-1.4,0.8-2.4v-0.7h-0.1c-0.4,0.5-0.9,0.9-1.5,1.2c-0.6,0.3-1.3,0.4-2.1,0.4c-0.9,0-1.7-0.2-2.4-0.5
					c-0.7-0.3-1.3-0.8-1.8-1.3c-0.5-0.6-0.9-1.2-1.1-2S40,16.8,40,16c0-0.8,0.1-1.6,0.4-2.4c0.3-0.8,0.6-1.4,1.1-2
					c0.5-0.6,1.1-1,1.8-1.4c0.7-0.3,1.5-0.5,2.4-0.5c0.8,0,1.5,0.2,2.2,0.5c0.7,0.3,1.2,0.8,1.7,1.4h0V10h3.7V20.9z M49.5,16
					c0-0.4-0.1-0.8-0.2-1.2s-0.3-0.7-0.6-1s-0.6-0.5-0.9-0.7c-0.4-0.2-0.8-0.2-1.2-0.2c-0.4,0-0.8,0.1-1.2,0.2s-0.6,0.4-0.9,0.6
					c-0.2,0.3-0.4,0.6-0.6,1s-0.2,0.8-0.2,1.2c0,0.4,0.1,0.8,0.2,1.2c0.1,0.4,0.3,0.7,0.6,1s0.5,0.5,0.9,0.7s0.7,0.3,1.2,0.3
					c0.4,0,0.9-0.1,1.2-0.3c0.4-0.2,0.7-0.4,0.9-0.7c0.2-0.3,0.4-0.6,0.6-1S49.5,16.4,49.5,16z"/>
			</g>
			<g class="st0">
				<path class="st1" d="M58.9,25h-3.3l1.8-6.8h3.8L58.9,25z M61.2,12.2c0,0.6-0.2,1.2-0.7,1.6s-1,0.7-1.6,0.7
					c-0.3,0-0.6-0.1-0.9-0.2c-0.3-0.1-0.5-0.3-0.7-0.5c-0.2-0.2-0.4-0.4-0.5-0.7s-0.2-0.6-0.2-0.9c0-0.3,0.1-0.6,0.2-0.9
					s0.3-0.5,0.5-0.7c0.2-0.2,0.5-0.4,0.8-0.5c0.3-0.1,0.6-0.2,0.9-0.2c0.3,0,0.6,0.1,0.9,0.2c0.3,0.1,0.5,0.3,0.7,0.5
					s0.4,0.4,0.5,0.7C61.1,11.5,61.2,11.8,61.2,12.2z"/>
			</g>
		</g>
	</g>
</g>
</svg>
